<?xml version="1.0" standalone="no"?>
<!DOCTYPE svg PUBLIC "-//W3C//DTD SVG 20010904//EN"
 "http://www.w3.org/TR/2001/REC-SVG-20010904/DTD/svg10.dtd">
<svg version="1.0" xmlns="http://www.w3.org/2000/svg"
 width="32.000000pt" height="32.000000pt" viewBox="0 0 32.000000 32.000000"
 preserveAspectRatio="xMidYMid meet">
<metadata>
Created by potrace 1.16, written by Peter Selinger 2001-2019
</metadata>
<g transform="translate(0.000000,32.000000) scale(0.006250,-0.006250)"
fill="#000000" stroke="none">
<path d="M950 5101 c-161 -51 -281 -181 -325 -348 -23 -86 -23 -4300 0 -4386
44 -170 171 -303 334 -351 49 -14 216 -16 1601 -16 1385 0 1552 2 1601 16 163
48 290 181 334 351 13 50 15 278 15 1713 0 1597 -1 1656 -19 1695 -13 27 -228
249 -673 693 l-653 652 -1080 -1 c-1003 0 -1084 -1 -1135 -18z m1980 -748 c0
-437 6 -500 51 -578 63 -111 158 -188 269 -217 56 -15 122 -17 483 -17 l417
-1 -2 -1547 c-3 -1437 -4 -1550 -20 -1572 -9 -13 -30 -32 -45 -42 -27 -18 -85
-19 -1522 -19 -1468 0 -1494 0 -1525 20 -66 40 -61 -134 -61 2184 0 1968 1
2113 17 2135 9 13 30 32 45 42 27 18 70 19 961 19 l932 0 0 -407z m674 -138
l338 -345 -307 0 -307 0 -34 34 -34 34 0 311 c0 171 1 311 3 311 2 0 155 -155
341 -345z"/>
<path d="M2110 4484 c-129 -19 -184 -42 -244 -100 -79 -76 -112 -211 -96 -383
10 -102 15 -127 43 -206 41 -119 130 -225 225 -268 37 -16 67 -21 137 -22 80
0 97 3 150 29 155 77 241 242 261 502 19 263 -88 412 -319 443 -78 11 -108 12
-157 5z"/>
<path d="M1936 3463 c-38 -31 -109 -71 -200 -113 l-141 -65 -27 -55 c-15 -30
-52 -131 -83 -224 -43 -130 -57 -188 -61 -250 -3 -48 -1 -87 5 -96 9 -13 104
-15 736 -18 462 -1 732 1 744 7 29 16 33 65 11 173 -28 138 -127 414 -161 447
-14 14 -84 53 -155 86 -83 38 -149 76 -185 107 l-56 47 -91 -87 -91 -87 39
-258 40 -259 -41 -59 -42 -59 -42 58 -43 57 39 260 39 260 -88 88 -88 88 -58
-48z"/>
<path d="M1451 2273 c-90 -45 -93 -176 -5 -224 40 -21 2188 -21 2228 0 61 33
83 117 47 177 -41 68 27 64 -1163 64 -980 0 -1076 -2 -1107 -17z"/>
<path d="M1480 1674 c-62 -21 -100 -68 -100 -124 0 -44 33 -94 74 -114 31 -14
142 -16 1106 -16 1188 0 1117 -4 1160 65 36 59 19 130 -41 173 -22 16 -107 17
-1104 19 -594 1 -1087 -1 -1095 -3z"/>
<path d="M1485 1063 c-89 -19 -132 -114 -86 -189 41 -68 -27 -64 1161 -64 981
0 1075 1 1107 17 90 43 97 161 12 221 -22 16 -106 17 -1099 18 -591 1 -1084 0
-1095 -3z"/>
</g>
</svg>
